<?xml version="1.0" encoding="UTF-8"?>
<svg id="Layer_1" data-name="Layer 1" xmlns="http://www.w3.org/2000/svg" xmlns:xlink="http://www.w3.org/1999/xlink" viewBox="0 0 902.36 421.46">
  <defs>
    <style>
      .cls-1, .cls-2, .cls-3, .cls-4, .cls-5, .cls-6, .cls-7, .cls-8, .cls-9, .cls-10, .cls-11 {
        stroke-miterlimit: 10;
      }

      .cls-1, .cls-2, .cls-4, .cls-5, .cls-6, .cls-7, .cls-8, .cls-9, .cls-10, .cls-11 {
        fill: none;
      }

      .cls-1, .cls-8, .cls-10 {
        stroke: #83c7c2;
      }

      .cls-12 {
        fill: #83c7c2;
      }

      .cls-13, .cls-3 {
        fill: #61bcea;
      }

      .cls-2, .cls-4, .cls-8 {
        stroke-width: 2.5px;
      }

      .cls-2, .cls-5, .cls-9 {
        stroke: #146f8d;
      }

      .cls-14 {
        fill: #146f8d;
      }

      .cls-15 {
        fill: #0a7393;
      }

      .cls-16 {
        fill: #fff;
      }

      .cls-17 {
        fill: #3171aa;
      }

      .cls-18 {
        fill: #427ab3;
        opacity: .9;
      }

      .cls-3 {
        stroke-width: 10px;
      }

      .cls-3, .cls-6 {
        stroke: #56c1ec;
      }

      .cls-19 {
        fill: #3a66a8;
      }

      .cls-20 {
        fill: #232f6c;
      }

      .cls-21 {
        fill: #3499cc;
      }

      .cls-4, .cls-7, .cls-11 {
        stroke: #0a7393;
      }

      .cls-6, .cls-9, .cls-10, .cls-11 {
        stroke-width: 5px;
      }

      .cls-22 {
        fill: #56c1ee;
      }

      .cls-23 {
        fill: url(#linear-gradient);
      }

      .cls-24 {
        fill: #59bfed;
      }
    </style>
    <linearGradient id="linear-gradient" x1="657.29" y1="97.87" x2="755.98" y2="97.87" gradientUnits="userSpaceOnUse">
      <stop offset="0" stop-color="#26326b"/>
      <stop offset="1" stop-color="#3499cc"/>
    </linearGradient>
  </defs>
  <g>
    <polygon class="cls-10" points="229.61 101.03 202.7 101.4 188.93 78.55 202.07 55.33 228.97 54.96 242.74 77.82 229.61 101.03"/>
    <polygon class="cls-11" points="279.23 129.24 252.33 129.61 238.55 106.75 251.69 83.54 278.59 83.17 292.37 106.02 279.23 129.24"/>
    <polygon class="cls-6" points="328.86 157.45 301.95 157.81 288.18 134.96 301.31 111.74 328.22 111.38 341.99 134.23 328.86 157.45"/>
    <polygon class="cls-10" points="376 185.04 349.1 185.41 335.33 162.55 348.46 139.34 375.36 138.97 389.14 161.83 376 185.04"/>
    <polygon class="cls-9" points="328.77 213.75 301.87 214.11 288.1 191.26 301.23 168.04 328.14 167.68 341.91 190.53 328.77 213.75"/>
    <polygon class="cls-6" points="279.23 241.4 252.33 241.77 238.55 218.91 251.69 195.7 278.59 195.33 292.37 218.18 279.23 241.4"/>
    <polygon class="cls-9" points="229.61 270.05 202.7 270.41 188.93 247.56 202.07 224.34 228.97 223.98 242.74 246.83 229.61 270.05"/>
    <polygon class="cls-10" points="229.21 213.75 202.31 214.11 188.54 191.26 201.67 168.04 228.58 167.68 242.35 190.53 229.21 213.75"/>
    <polygon class="cls-6" points="229.21 157.39 202.31 157.76 188.54 134.9 201.67 111.68 228.58 111.32 242.35 134.17 229.21 157.39"/>
    <polygon class="cls-10" points="279.23 185.05 252.33 185.41 238.55 162.56 251.69 139.34 278.59 138.97 292.37 161.83 279.23 185.05"/>
    <polygon class="cls-10" points="180.35 185.41 153.44 185.77 139.67 162.92 152.8 139.7 179.71 139.34 193.48 162.19 180.35 185.41"/>
    <polygon class="cls-12" points="374.05 69.77 359.26 69.74 351.9 56.93 359.32 44.14 374.11 44.17 381.47 56.98 374.05 69.77"/>
    <polygon class="cls-14" points="177.95 115.5 169.17 115.48 164.79 107.87 169.2 100.27 177.98 100.29 182.36 107.9 177.95 115.5"/>
    <polygon class="cls-13" points="138.3 210 129.52 209.98 125.14 202.37 129.55 194.78 138.33 194.79 142.71 202.4 138.3 210"/>
    <polygon class="cls-8" points="292.97 50.63 284.19 50.61 279.82 43 284.22 35.4 293.01 35.42 297.38 43.03 292.97 50.63"/>
    <polygon class="cls-4" points="151.24 126.01 135.29 126.25 127.1 112.7 134.87 98.92 150.83 98.69 159.02 112.23 151.24 126.01"/>
    <polygon class="cls-2" points="398.54 233.86 413.67 233.86 421.4 246.47 414.01 259.49 398.96 259.49 391.14 247.06 398.54 233.86"/>
    <polygon class="cls-22" points="342.91 234.96 348.39 234.96 350.43 239.16 348.22 243.7 342.78 243.7 340.23 239.33 342.91 234.96"/>
    <polygon class="cls-22" points="300.29 223.98 312.02 223.98 317.63 233.86 312.19 244.07 300.29 244.07 294.17 233.86 300.29 223.98"/>
    <polygon class="cls-14" points="387.66 197.55 392.44 189.71 401.68 189.71 406.27 197.55 401.81 205.34 392.63 205.34 387.66 197.55"/>
    <polygon class="cls-1" points="157.04 205.34 163.49 205.34 166.57 211.39 163.32 216.93 157.04 216.93 153.64 211.14 157.04 205.34"/>
    <polygon class="cls-24" points="252.1 45.7 265.46 45.7 272.28 56.95 265.46 68.21 252.1 68.21 245.6 56.95 252.1 45.7"/>
    <polygon class="cls-8" points="436.49 79.98 444.48 79.98 448.22 86.2 444.48 92.92 436.49 92.92 432.92 86.45 436.49 79.98"/>
    <polygon class="cls-2" points="391.61 91.91 402.32 91.91 407.76 100.27 402.49 109.55 391.61 109.55 386.85 100.73 391.61 91.91"/>
    <polygon class="cls-1" points="383.96 114.43 390.08 114.43 393.31 120.14 390.08 126.25 383.96 125.69 380.39 120.34 383.96 114.43"/>
    <polygon class="cls-24" points="353.71 77.12 360.84 77.12 364.75 83.17 362.23 89.56 353.71 89.56 350.14 83.34 353.71 77.12"/>
    <polygon class="cls-24" points="291.66 64.18 295.57 64.18 297.38 67.54 295.74 70.9 291.66 70.9 289.96 67.54 291.66 64.18"/>
    <polygon class="cls-24" points="339.89 111.32 343.55 111.32 345.33 114.43 343.97 117.75 339.89 117.75 338.28 114.53 339.89 111.32"/>
    <polygon class="cls-24" points="362.31 100.48 369.96 100.73 373.47 107.1 369.9 113.33 362.31 113.33 358.36 106.91 362.31 100.48"/>
    <polygon class="cls-5" points="365.18 106.91 373.47 107.1 377.1 113.33 373.47 119.89 365.18 119.89 361.74 113.4 365.18 106.91"/>
    <line class="cls-10" x1="139.67" y1="162.55" x2="117.66" y2="162.55"/>
    <line class="cls-6" x1="264.72" y1="241.6" x2="264.72" y2="263.76"/>
    <line class="cls-9" x1="188.93" y1="247.56" x2="137.49" y2="247.56"/>
    <line class="cls-10" x1="389.14" y1="162.19" x2="433.66" y2="162.19"/>
    <line class="cls-9" x1="341.99" y1="134.23" x2="449.09" y2="134.23"/>
    <line class="cls-11" x1="278.59" y1="83.17" x2="313.72" y2="83.17"/>
    <line class="cls-10" x1="215.84" y1="54.96" x2="215.84" y2="18.41"/>
    <line class="cls-10" x1="188.93" y1="78.55" x2="80.84" y2="78.55"/>
    <line class="cls-9" x1="329.44" y1="213.69" x2="359.06" y2="213.69"/>
    <polygon class="cls-7" points="341.08 98.73 337.13 105.4 329.32 105.36 325.45 98.64 329.4 91.97 337.21 92.02 341.08 98.73"/>
    <polygon class="cls-2" points="289.84 241.01 294.43 233.86 306.67 233.86 312.62 243.7 306.5 254.28 294.26 254.28 288.31 244.07 289.84 241.01"/>
    <ellipse class="cls-12" cx="77.35" cy="78.55" rx="4.3" ry="4.25"/>
    <ellipse class="cls-15" cx="450.77" cy="134.6" rx="4.3" ry="4.25"/>
    <ellipse class="cls-12" cx="433.66" cy="162.19" rx="4.3" ry="4.25"/>
    <ellipse class="cls-14" cx="359.06" cy="213.69" rx="4.3" ry="4.25"/>
    <ellipse class="cls-3" cx="264.13" cy="260.42" rx="4.3" ry="4.25"/>
    <ellipse class="cls-14" cx="138.48" cy="247.56" rx="4.3" ry="4.25"/>
    <ellipse class="cls-12" cx="117.66" cy="162.19" rx="4.3" ry="4.25"/>
    <ellipse class="cls-14" cx="315.08" cy="83.34" rx="4.3" ry="4.25"/>
  </g>
  <polygon class="cls-21" points="813.76 0 813.76 108.56 764.41 146.24 753.2 135.93 792.22 108.11 792.22 0 813.76 0"/>
  <polygon class="cls-17" points="743.78 142.21 792.22 108.11 792.22 0 576.45 0 743.78 142.21"/>
  <polygon class="cls-21" points="407.59 338.02 902.36 338.02 902.36 421.46 362.02 421.46 267.14 338.02 407.59 338.02"/>
  <polygon class="cls-18" points="110.36 126.06 355.29 338.02 213.31 338.02 34.99 181.91 110.36 126.06"/>
  <polygon class="cls-19" points="0 217.23 0 179.21 77.38 120.67 95.31 137.2 0 217.23"/>
  <circle class="cls-23" cx="706.64" cy="97.87" r="49.35"/>
  <ellipse class="cls-12" cx="215.84" cy="18.41" rx="4.46" ry="4.41"/>
  <path class="cls-16" d="M686.43,79.62h-3.97v2.56h4.43v2h-6.88v-10.79h6.66v2h-4.21v2.24h3.97v1.98Z"/>
  <path class="cls-16" d="M690.99,73.39v6.21c0,1.86.71,2.8,1.95,2.8s1.98-.9,1.98-2.8v-6.21h2.43v6.05c0,3.33-1.68,4.91-4.5,4.91s-4.32-1.5-4.32-4.95v-6.02h2.45Z"/>
  <path class="cls-16" d="M699.47,73.53c.78-.13,1.95-.22,3.25-.22,1.6,0,2.72.24,3.49.85.64.51.99,1.26.99,2.26,0,1.38-.98,2.32-1.91,2.66v.05c.75.3,1.17,1.02,1.44,2.02.34,1.22.67,2.62.88,3.04h-2.5c-.18-.3-.43-1.18-.75-2.51-.29-1.34-.75-1.71-1.75-1.73h-.74v4.24h-2.42v-10.64ZM701.89,78.18h.96c1.22,0,1.94-.61,1.94-1.55,0-.99-.67-1.49-1.79-1.5-.59,0-.93.05-1.1.08v2.98Z"/>
  <path class="cls-16" d="M718.77,78.67c0,3.54-2.14,5.68-5.3,5.68s-5.07-2.42-5.07-5.49c0-3.23,2.06-5.65,5.25-5.65s5.12,2.48,5.12,5.46ZM710.97,78.82c0,2.11.99,3.6,2.62,3.6s2.59-1.57,2.59-3.67c0-1.94-.93-3.6-2.61-3.6s-2.61,1.57-2.61,3.67Z"/>
  <path class="cls-16" d="M720.37,73.53c.75-.13,1.81-.22,3.3-.22s2.58.29,3.3.86c.69.54,1.15,1.44,1.15,2.5s-.35,1.95-.99,2.56c-.83.78-2.07,1.14-3.51,1.14-.32,0-.61-.02-.83-.05v3.86h-2.42v-10.64ZM722.78,78.43c.21.05.46.06.82.06,1.3,0,2.1-.66,2.1-1.76,0-.99-.69-1.58-1.9-1.58-.5,0-.83.05-1.01.1v3.19Z"/>
  <path class="cls-16" d="M736.08,79.62h-3.97v2.56h4.43v2h-6.88v-10.79h6.66v2h-4.21v2.24h3.97v1.98Z"/>
  <path class="cls-16" d="M701.02,94.64h-2.9v-2.05h8.29v2.05h-2.94v8.74h-2.45v-8.74Z"/>
  <path class="cls-16" d="M717.12,97.87c0,3.54-2.14,5.68-5.3,5.68s-5.07-2.42-5.07-5.49c0-3.23,2.06-5.65,5.25-5.65s5.12,2.48,5.12,5.46ZM709.32,98.02c0,2.11.99,3.6,2.62,3.6s2.59-1.57,2.59-3.67c0-1.94-.93-3.6-2.61-3.6s-2.61,1.57-2.61,3.67Z"/>
  <path class="cls-16" d="M686.43,118.02h-3.97v2.56h4.43v2h-6.88v-10.79h6.66v2h-4.21v2.24h3.97v1.98Z"/>
  <path class="cls-16" d="M690.99,111.79v6.21c0,1.86.71,2.8,1.95,2.8s1.98-.9,1.98-2.8v-6.21h2.43v6.05c0,3.33-1.68,4.91-4.5,4.91s-4.32-1.5-4.32-4.95v-6.02h2.45Z"/>
  <path class="cls-16" d="M699.47,111.93c.78-.13,1.95-.22,3.25-.22,1.6,0,2.72.24,3.49.85.64.51.99,1.26.99,2.26,0,1.38-.98,2.32-1.91,2.66v.05c.75.3,1.17,1.02,1.44,2.02.34,1.22.67,2.62.88,3.04h-2.5c-.18-.3-.43-1.18-.75-2.51-.29-1.34-.75-1.71-1.75-1.73h-.74v4.24h-2.42v-10.64ZM701.89,116.58h.96c1.22,0,1.94-.61,1.94-1.55,0-.99-.67-1.49-1.79-1.5-.59,0-.93.05-1.1.08v2.98Z"/>
  <path class="cls-16" d="M718.77,117.07c0,3.54-2.14,5.68-5.3,5.68s-5.07-2.42-5.07-5.49c0-3.23,2.06-5.65,5.25-5.65s5.12,2.48,5.12,5.46ZM710.97,117.22c0,2.11.99,3.6,2.62,3.6s2.59-1.57,2.59-3.67c0-1.94-.93-3.6-2.61-3.6s-2.61,1.57-2.61,3.67Z"/>
  <path class="cls-16" d="M720.37,111.93c.75-.13,1.81-.22,3.3-.22s2.58.29,3.3.86c.69.54,1.15,1.44,1.15,2.5s-.35,1.95-.99,2.56c-.83.78-2.07,1.14-3.51,1.14-.32,0-.61-.02-.83-.05v3.86h-2.42v-10.64ZM722.78,116.83c.21.05.46.06.82.06,1.3,0,2.1-.66,2.1-1.76,0-.99-.69-1.58-1.9-1.58-.5,0-.83.05-1.01.1v3.19Z"/>
  <path class="cls-16" d="M736.08,118.02h-3.97v2.56h4.43v2h-6.88v-10.79h6.66v2h-4.21v2.24h3.97v1.98Z"/>
  <polygon class="cls-20" points="95.31 137.2 328.31 339.02 186.33 339.02 23.62 197.4 22.04 191.53 95.31 137.2"/>
</svg>