<?xml version="1.0" encoding="UTF-8"?>
<svg id="Layer_1" data-name="Layer 1" xmlns="http://www.w3.org/2000/svg" viewBox="0 0 1124.41 904.37">
  <defs>
    <style>
      .cls-1, .cls-2, .cls-3, .cls-4, .cls-5, .cls-6, .cls-7, .cls-8, .cls-9, .cls-10, .cls-11, .cls-12 {
        stroke-miterlimit: 10;
      }

      .cls-1, .cls-2, .cls-3, .cls-4, .cls-5, .cls-6, .cls-7, .cls-9, .cls-10, .cls-11, .cls-12 {
        fill: none;
      }

      .cls-1, .cls-2, .cls-5, .cls-8, .cls-12 {
        stroke-width: 10px;
      }

      .cls-1, .cls-4, .cls-9, .cls-11 {
        stroke: #0d6e8d;
      }

      .cls-13 {
        fill: #087292;
      }

      .cls-14 {
        fill: #56bfed;
      }

      .cls-2, .cls-6, .cls-7 {
        stroke: #087292;
      }

      .cls-15, .cls-8 {
        fill: #59bdf3;
      }

      .cls-16 {
        fill: #0d6e8d;
      }

      .cls-3, .cls-4, .cls-7 {
        stroke-width: 3px;
      }

      .cls-3, .cls-10, .cls-12 {
        stroke: #82c7c2;
      }

      .cls-5, .cls-8 {
        stroke: #54c1ec;
      }

      .cls-17 {
        fill: #53c1ed;
      }

      .cls-11 {
        stroke-width: 2px;
      }

      .cls-18 {
        fill: #82c7c2;
      }
    </style>
  </defs>
  <polygon class="cls-12" points="466.68 324.26 395.68 325.23 359.33 264.23 393.99 202.25 465 201.28 501.34 262.28 466.68 324.26"/>
  <polygon class="cls-2" points="597.64 399.56 526.64 400.53 490.29 339.53 524.96 277.55 595.96 276.58 632.3 337.58 597.64 399.56"/>
  <polygon class="cls-5" points="728.6 474.86 657.6 475.83 621.25 414.83 655.92 352.85 726.92 351.88 763.27 412.88 728.6 474.86"/>
  <polygon class="cls-12" points="853.03 548.52 782.02 549.5 745.68 488.49 780.34 426.51 851.35 425.54 887.69 486.55 853.03 548.52"/>
  <polygon class="cls-1" points="728.39 625.15 657.39 626.12 621.04 565.12 655.7 503.14 726.71 502.17 763.05 563.17 728.39 625.15"/>
  <polygon class="cls-5" points="597.64 698.97 526.64 699.95 490.29 638.94 524.96 576.96 595.96 575.99 632.3 637 597.64 698.97"/>
  <polygon class="cls-1" points="466.68 775.44 395.68 776.41 359.33 715.41 393.99 653.43 465 652.46 501.34 713.46 466.68 775.44"/>
  <polygon class="cls-12" points="465.64 625.15 394.64 626.12 358.29 565.12 392.95 503.14 463.96 502.17 500.3 563.17 465.64 625.15"/>
  <polygon class="cls-5" points="465.64 474.71 394.64 475.68 358.29 414.67 392.95 352.69 463.96 351.72 500.3 412.73 465.64 474.71"/>
  <polygon class="cls-12" points="597.64 548.53 526.64 549.5 490.29 488.49 524.96 426.51 595.96 425.54 632.3 486.55 597.64 548.53"/>
  <polygon class="cls-12" points="336.67 549.5 265.67 550.47 229.32 489.46 263.99 427.48 334.99 426.51 371.34 487.52 336.67 549.5"/>
  <polygon class="cls-18" points="847.88 240.8 808.85 240.73 789.41 206.52 809 172.38 848.03 172.45 867.47 206.66 847.88 240.8"/>
  <polygon class="cls-16" points="330.35 362.87 307.17 362.83 295.63 342.51 307.26 322.23 330.44 322.27 341.99 342.59 330.35 362.87"/>
  <polygon class="cls-15" points="225.71 615.15 202.53 615.1 190.98 594.79 202.62 574.51 225.8 574.55 237.34 594.87 225.71 615.15"/>
  <polygon class="cls-3" points="633.91 189.7 610.73 189.65 599.18 169.34 610.82 149.06 634 149.1 645.54 169.42 633.91 189.7"/>
  <polygon class="cls-7" points="259.87 390.94 217.76 391.57 196.16 355.41 216.67 318.63 258.78 318 280.38 354.15 259.87 390.94"/>
  <polygon class="cls-4" points="912.5 678.85 952.43 678.85 972.84 712.5 953.33 747.26 913.62 747.26 892.99 714.07 912.5 678.85"/>
  <polygon class="cls-17" points="765.7 681.77 780.17 681.77 785.55 692.98 779.72 705.1 765.36 705.1 758.63 693.43 765.7 681.77"/>
  <polygon class="cls-17" points="653.21 652.46 684.17 652.46 698.97 678.85 684.61 706.11 653.21 706.11 637.06 678.85 653.21 652.46"/>
  <polygon class="cls-16" points="883.79 581.9 896.41 560.98 920.8 560.98 932.91 581.9 921.14 602.7 896.91 602.7 883.79 581.9"/>
  <polygon class="cls-10" points="275.16 602.7 292.2 602.7 300.33 618.85 291.76 633.66 275.16 633.66 266.18 618.18 275.16 602.7"/>
  <polygon class="cls-14" points="526.04 176.54 561.3 176.54 579.31 206.59 561.3 236.65 526.04 236.65 508.88 206.59 526.04 176.54"/>
  <polygon class="cls-3" points="1012.65 268.05 1033.74 268.05 1043.61 284.65 1033.74 302.59 1012.65 302.59 1003.23 285.32 1012.65 268.05"/>
  <polygon class="cls-4" points="894.22 299.9 922.48 299.9 936.84 322.23 922.93 347 894.22 347 881.66 323.45 894.22 299.9"/>
  <polygon class="cls-10" points="874.04 360.01 890.18 360.01 898.71 375.26 890.18 391.57 874.04 390.07 864.61 375.79 874.04 360.01"/>
  <polygon class="cls-14" points="794.18 260.42 813.03 260.42 823.34 276.58 816.68 293.62 794.18 293.62 784.76 277.02 794.18 260.42"/>
  <polygon class="cls-14" points="630.45 225.88 640.76 225.88 645.54 234.85 641.21 243.83 630.45 243.83 625.96 234.85 630.45 225.88"/>
  <polygon class="cls-14" points="757.74 351.72 767.38 351.72 772.09 360.01 768.5 368.87 757.74 368.87 753.47 360.3 757.74 351.72"/>
  <polygon class="cls-14" points="816.9 322.78 837.08 323.45 846.33 340.44 836.91 357.1 816.9 357.1 806.47 339.94 816.9 322.78"/>
  <polygon class="cls-9" points="824.47 339.94 846.33 340.44 855.92 357.1 846.33 374.59 824.47 374.59 815.38 357.26 824.47 339.94"/>
  <line class="cls-12" x1="229.32" y1="488.49" x2="171.25" y2="488.49"/>
  <line class="cls-5" x1="559.34" y1="699.5" x2="559.34" y2="758.65"/>
  <line class="cls-1" x1="359.33" y1="715.41" x2="223.57" y2="715.41"/>
  <line class="cls-12" x1="887.69" y1="487.52" x2="1005.19" y2="487.52"/>
  <line class="cls-1" x1="763.27" y1="412.88" x2="1045.9" y2="412.88"/>
  <line class="cls-2" x1="595.96" y1="276.58" x2="688.65" y2="276.58"/>
  <line class="cls-12" x1="430.34" y1="201.28" x2="430.34" y2="103.69"/>
  <line class="cls-12" x1="359.33" y1="264.23" x2="74.07" y2="264.23"/>
  <line class="cls-1" x1="730.15" y1="625" x2="808.32" y2="625"/>
  <polygon class="cls-6" points="760.87 318.12 750.45 335.92 729.82 335.8 719.61 317.88 730.03 300.07 750.66 300.19 760.87 318.12"/>
  <polygon class="cls-11" points="625.64 697.92 637.76 678.85 670.05 678.85 685.76 705.1 669.61 733.36 637.31 733.36 621.61 706.11 625.64 697.92"/>
  <circle class="cls-18" cx="431.3" cy="101.48" r="11.36"/>
  <circle class="cls-18" cx="64.87" cy="264.23" r="11.36"/>
  <circle class="cls-13" cx="1050.35" cy="413.86" r="11.36"/>
  <circle class="cls-18" cx="1005.19" cy="487.52" r="11.36"/>
  <circle class="cls-16" cx="808.32" cy="625" r="11.36"/>
  <circle class="cls-8" cx="557.78" cy="749.75" r="11.36"/>
  <circle class="cls-16" cx="226.2" cy="715.41" r="11.36"/>
  <circle class="cls-18" cx="171.25" cy="487.52" r="11.36"/>
  <circle class="cls-16" cx="692.26" cy="277.02" r="11.36"/>
</svg>